<?xml version="1.0" encoding="UTF-8" standalone="no"?>
<!DOCTYPE svg PUBLIC "-//W3C//DTD SVG 1.1//EN"
 "http://www.w3.org/Graphics/SVG/1.1/DTD/svg11.dtd">
<!-- Generated by graphviz version 12.2.1 (20241206.2353)
 -->
<!-- Title: G Pages: 1 -->
<svg width="632pt" height="386pt"
 viewBox="0.00 0.00 632.34 385.99" xmlns="http://www.w3.org/2000/svg" xmlns:xlink="http://www.w3.org/1999/xlink">
<g id="graph0" class="graph" transform="scale(1 1) rotate(0) translate(4 381.99)">
<title>G</title><style>.edge>path:hover{stroke-width:8}</style>
<polygon fill="white" stroke="none" points="-4,4 -4,-381.99 628.34,-381.99 628.34,4 -4,4"/>
<!-- pydeps -->
<g id="node1" class="node">
<title>pydeps</title><style>.edge>path:hover{stroke-width:8}</style>
<ellipse fill="#b65353" stroke="black" cx="121.35" cy="-283.36" rx="28.56" ry="18"/>
<text text-anchor="middle" x="121.35" y="-279.86" font-family="Helvetica,sans-Serif" font-size="10.00" fill="#ffffff">pydeps</text>
</g>
<!-- who__is_who_who__is_who -->
<g id="node12" class="node">
<title>who__is_who_who__is_who</title><style>.edge>path:hover{stroke-width:8}</style>
<ellipse fill="#663d8f" stroke="black" cx="178.35" cy="-120.85" rx="55.33" ry="22.63"/>
<text text-anchor="middle" x="178.35" y="-123.35" font-family="Helvetica,sans-Serif" font-size="10.00" fill="#ffffff">who__is_who.</text>
<text text-anchor="middle" x="178.35" y="-111.35" font-family="Helvetica,sans-Serif" font-size="10.00" fill="#ffffff">who__is_who</text>
</g>
<!-- pydeps&#45;&gt;who__is_who_who__is_who -->
<g id="edge1" class="edge">
<title>pydeps&#45;&gt;who__is_who_who__is_who</title><style>.edge>path:hover{stroke-width:8}</style>
<path fill="none" stroke="black" d="M178.35,-201.11C176.29,-186.09 176.01,-169.32 176.35,-155.09"/>
<polygon fill="#b65353" stroke="black" points="179.83,-155.46 176.7,-145.34 172.84,-155.21 179.83,-155.46"/>
<path fill="none" stroke="black" d="M139.93,-269.42C157.96,-255.13 182.09,-230.48 178.35,-203.11"/>
</g>
<!-- pytest -->
<g id="node2" class="node">
<title>pytest</title><style>.edge>path:hover{stroke-width:8}</style>
<ellipse fill="#85db2f" stroke="black" cx="560.35" cy="-283.36" rx="27" ry="18"/>
<text text-anchor="middle" x="560.35" y="-279.86" font-family="Helvetica,sans-Serif" font-size="10.00" fill="#000000">pytest</text>
</g>
<!-- who__is_who_randomizer -->
<g id="node7" class="node">
<title>who__is_who_randomizer</title><style>.edge>path:hover{stroke-width:8}</style>
<ellipse fill="#7546a4" stroke="black" cx="483.35" cy="-120.85" rx="55.33" ry="22.63"/>
<text text-anchor="middle" x="483.35" y="-123.35" font-family="Helvetica,sans-Serif" font-size="10.00" fill="#ffffff">who__is_who.</text>
<text text-anchor="middle" x="483.35" y="-111.35" font-family="Helvetica,sans-Serif" font-size="10.00" fill="#ffffff">randomizer</text>
</g>
<!-- pytest&#45;&gt;who__is_who_randomizer -->
<g id="edge2" class="edge">
<title>pytest&#45;&gt;who__is_who_randomizer</title><style>.edge>path:hover{stroke-width:8}</style>
<path fill="none" stroke="black" d="M566.35,-201.11C561.68,-177.99 543.58,-159.31 525.48,-145.9"/>
<polygon fill="#85db2f" stroke="black" points="527.53,-143.07 517.32,-140.24 523.54,-148.82 527.53,-143.07"/>
<path fill="none" stroke="black" d="M564.33,-265.19C567.45,-249.02 570.61,-224.21 566.35,-203.11"/>
</g>
<!-- who__is_who_test_test_adivinar -->
<g id="node9" class="node">
<title>who__is_who_test_test_adivinar</title><style>.edge>path:hover{stroke-width:8}</style>
<ellipse fill="#70439d" stroke="black" cx="566.35" cy="-31.11" rx="55.33" ry="31.11"/>
<text text-anchor="middle" x="566.35" y="-39.61" font-family="Helvetica,sans-Serif" font-size="10.00" fill="#ffffff">who__is_who.</text>
<text text-anchor="middle" x="566.35" y="-27.61" font-family="Helvetica,sans-Serif" font-size="10.00" fill="#ffffff">test.</text>
<text text-anchor="middle" x="566.35" y="-15.61" font-family="Helvetica,sans-Serif" font-size="10.00" fill="#ffffff">test_adivinar</text>
</g>
<!-- pytest&#45;&gt;who__is_who_test_test_adivinar -->
<g id="edge3" class="edge">
<title>pytest&#45;&gt;who__is_who_test_test_adivinar</title><style>.edge>path:hover{stroke-width:8}</style>
<path fill="none" stroke="black" d="M566.35,-119.85C558.39,-106.09 556.92,-88.96 557.97,-73.5"/>
<polygon fill="#85db2f" stroke="black" points="561.45,-73.91 559.04,-63.59 554.49,-73.16 561.45,-73.91"/>
</g>
<!-- who__is_who_test_test_aleatorio -->
<g id="node10" class="node">
<title>who__is_who_test_test_aleatorio</title><style>.edge>path:hover{stroke-width:8}</style>
<ellipse fill="#70439d" stroke="black" cx="254.35" cy="-31.11" rx="55.33" ry="31.11"/>
<text text-anchor="middle" x="254.35" y="-39.61" font-family="Helvetica,sans-Serif" font-size="10.00" fill="#ffffff">who__is_who.</text>
<text text-anchor="middle" x="254.35" y="-27.61" font-family="Helvetica,sans-Serif" font-size="10.00" fill="#ffffff">test.</text>
<text text-anchor="middle" x="254.35" y="-15.61" font-family="Helvetica,sans-Serif" font-size="10.00" fill="#ffffff">test_aleatorio</text>
</g>
<!-- pytest&#45;&gt;who__is_who_test_test_aleatorio -->
<g id="edge4" class="edge">
<title>pytest&#45;&gt;who__is_who_test_test_aleatorio</title><style>.edge>path:hover{stroke-width:8}</style>
<path fill="none" stroke="black" d="M566.35,-119.85C509.69,-21.9 426.52,-95.43 318.35,-62.23 313.86,-60.85 309.28,-59.21 304.74,-57.42"/>
<polygon fill="#85db2f" stroke="black" points="306.25,-54.26 295.68,-53.6 303.54,-60.71 306.25,-54.26"/>
<path fill="none" stroke="black" d="M566.35,-201.11C559.38,-166.58 583.98,-152.34 566.35,-121.85"/>
</g>
<!-- who__is_who_test_test_depurar_personaje -->
<g id="node11" class="node">
<title>who__is_who_test_test_depurar_personaje</title><style>.edge>path:hover{stroke-width:8}</style>
<ellipse fill="#7546a4" stroke="black" cx="410.35" cy="-31.11" rx="82.91" ry="31.11"/>
<text text-anchor="middle" x="410.35" y="-39.61" font-family="Helvetica,sans-Serif" font-size="10.00" fill="#ffffff">who__is_who.</text>
<text text-anchor="middle" x="410.35" y="-27.61" font-family="Helvetica,sans-Serif" font-size="10.00" fill="#ffffff">test.</text>
<text text-anchor="middle" x="410.35" y="-15.61" font-family="Helvetica,sans-Serif" font-size="10.00" fill="#ffffff">test_depurar_personaje</text>
</g>
<!-- pytest&#45;&gt;who__is_who_test_test_depurar_personaje -->
<g id="edge5" class="edge">
<title>pytest&#45;&gt;who__is_who_test_test_depurar_personaje</title><style>.edge>path:hover{stroke-width:8}</style>
<path fill="none" stroke="black" d="M566.35,-119.85C548.74,-89.4 516.2,-68.73 485.37,-55.13"/>
<polygon fill="#85db2f" stroke="black" points="486.98,-52.01 476.41,-51.38 484.28,-58.47 486.98,-52.01"/>
</g>
<!-- reflex -->
<g id="node3" class="node">
<title>reflex</title><style>.edge>path:hover{stroke-width:8}</style>
<ellipse fill="#06f9f9" stroke="black" cx="341.35" cy="-359.99" rx="27" ry="18"/>
<text text-anchor="middle" x="341.35" y="-356.49" font-family="Helvetica,sans-Serif" font-size="10.00" fill="#000000">reflex</text>
</g>
<!-- who__is_who_estado -->
<g id="node6" class="node">
<title>who__is_who_estado</title><style>.edge>path:hover{stroke-width:8}</style>
<ellipse fill="#7523c8" stroke="black" cx="261.35" cy="-202.11" rx="55.33" ry="22.63"/>
<text text-anchor="middle" x="261.35" y="-204.61" font-family="Helvetica,sans-Serif" font-size="10.00" fill="#ffffff">who__is_who.</text>
<text text-anchor="middle" x="261.35" y="-192.61" font-family="Helvetica,sans-Serif" font-size="10.00" fill="#ffffff">estado</text>
</g>
<!-- reflex&#45;&gt;who__is_who_estado -->
<g id="edge6" class="edge">
<title>reflex&#45;&gt;who__is_who_estado</title><style>.edge>path:hover{stroke-width:8}</style>
<path fill="none" stroke="black" d="M178.35,-282.36C170.08,-258.2 190.9,-238.36 213.76,-224.58"/>
<polygon fill="#06f9f9" stroke="black" points="215.28,-227.74 222.28,-219.79 211.85,-221.64 215.28,-227.74"/>
</g>
<!-- reflex&#45;&gt;who__is_who_randomizer -->
<g id="edge7" class="edge">
<title>reflex&#45;&gt;who__is_who_randomizer</title><style>.edge>path:hover{stroke-width:8}</style>
<path fill="none" stroke="black" d="M362.3,-348.25C401.01,-326.92 481.96,-275.02 505.35,-203.11"/>
</g>
<!-- who__is_who_style -->
<g id="node8" class="node">
<title>who__is_who_style</title><style>.edge>path:hover{stroke-width:8}</style>
<ellipse fill="#7f40c0" stroke="black" cx="95.35" cy="-202.11" rx="55.33" ry="22.63"/>
<text text-anchor="middle" x="95.35" y="-204.61" font-family="Helvetica,sans-Serif" font-size="10.00" fill="#ffffff">who__is_who.</text>
<text text-anchor="middle" x="95.35" y="-192.61" font-family="Helvetica,sans-Serif" font-size="10.00" fill="#ffffff">style</text>
</g>
<!-- reflex&#45;&gt;who__is_who_style -->
<g id="edge8" class="edge">
<title>reflex&#45;&gt;who__is_who_style</title><style>.edge>path:hover{stroke-width:8}</style>
<path fill="none" stroke="black" d="M12.35,-282.36C1.35,-258.7 23.33,-238.51 47.42,-224.43"/>
<polygon fill="#06f9f9" stroke="black" points="48.99,-227.55 56.09,-219.69 45.63,-221.41 48.99,-227.55"/>
</g>
<!-- reflex&#45;&gt;who__is_who_test_test_adivinar -->
<g id="edge9" class="edge">
<title>reflex&#45;&gt;who__is_who_test_test_adivinar</title><style>.edge>path:hover{stroke-width:8}</style>
<path fill="none" stroke="black" d="M368.52,-357.53C428.22,-353.68 567.81,-341.07 596.35,-305.99 651.05,-238.75 613.27,-129.46 586.53,-71.35"/>
<polygon fill="#06f9f9" stroke="black" points="589.78,-70.03 582.34,-62.49 583.45,-73.03 589.78,-70.03"/>
</g>
<!-- reflex&#45;&gt;who__is_who_test_test_aleatorio -->
<g id="edge10" class="edge">
<title>reflex&#45;&gt;who__is_who_test_test_aleatorio</title><style>.edge>path:hover{stroke-width:8}</style>
<path fill="none" stroke="black" d="M12.35,-282.36C-27.07,-197.51 37.56,-151.67 114.35,-98.23 140.25,-80.2 171.84,-64.8 198.46,-53.41"/>
<polygon fill="#06f9f9" stroke="black" points="199.5,-56.77 207.37,-49.68 196.8,-50.31 199.5,-56.77"/>
<path fill="none" stroke="black" d="M314.27,-357.94C240.27,-354.35 38.46,-339.56 12.35,-284.36"/>
</g>
<!-- reflex&#45;&gt;who__is_who_who__is_who -->
<g id="edge11" class="edge">
<title>reflex&#45;&gt;who__is_who_who__is_who</title><style>.edge>path:hover{stroke-width:8}</style>
<path fill="none" stroke="black" d="M178.35,-282.36C166.95,-249.03 183.12,-238.01 178.35,-203.11"/>
<path fill="none" stroke="black" d="M314.32,-357.46C272.98,-353.39 196.88,-338.55 178.35,-284.36"/>
</g>
<!-- who__is_who_depurar_personajes -->
<g id="node4" class="node">
<title>who__is_who_depurar_personajes</title><style>.edge>path:hover{stroke-width:8}</style>
<ellipse fill="#7f40c0" stroke="black" cx="406.35" cy="-202.11" rx="71.24" ry="22.63"/>
<text text-anchor="middle" x="406.35" y="-204.61" font-family="Helvetica,sans-Serif" font-size="10.00" fill="#ffffff">who__is_who.</text>
<text text-anchor="middle" x="406.35" y="-192.61" font-family="Helvetica,sans-Serif" font-size="10.00" fill="#ffffff">depurar_personajes</text>
</g>
<!-- who__is_who_depurar_personajes&#45;&gt;who__is_who_test_test_depurar_personaje -->
<g id="edge12" class="edge">
<title>who__is_who_depurar_personajes&#45;&gt;who__is_who_test_test_depurar_personaje</title><style>.edge>path:hover{stroke-width:8}</style>
<path fill="none" stroke="black" d="M406.87,-179.01C407.5,-152.36 408.57,-107 409.36,-73.72"/>
<polygon fill="#7f40c0" stroke="black" points="412.85,-74.09 409.59,-64.01 405.86,-73.93 412.85,-74.09"/>
</g>
<!-- who__is_who_diccionario_caracteristicas2 -->
<g id="node5" class="node">
<title>who__is_who_diccionario_caracteristicas2</title><style>.edge>path:hover{stroke-width:8}</style>
<ellipse fill="#8522e7" stroke="black" cx="303.35" cy="-283.36" rx="96.7" ry="22.63"/>
<text text-anchor="middle" x="303.35" y="-285.86" font-family="Helvetica,sans-Serif" font-size="10.00" fill="#ffffff">who__is_who.</text>
<text text-anchor="middle" x="303.35" y="-273.86" font-family="Helvetica,sans-Serif" font-size="10.00" fill="#ffffff">diccionario_caracteristicas2</text>
</g>
<!-- who__is_who_diccionario_caracteristicas2&#45;&gt;who__is_who_depurar_personajes -->
<g id="edge13" class="edge">
<title>who__is_who_diccionario_caracteristicas2&#45;&gt;who__is_who_depurar_personajes</title><style>.edge>path:hover{stroke-width:8}</style>
<path fill="none" stroke="black" d="M330.68,-261.33C343.08,-251.79 357.89,-240.4 371.11,-230.22"/>
<polygon fill="#8522e7" stroke="black" points="372.97,-233.21 378.76,-224.34 368.7,-227.66 372.97,-233.21"/>
</g>
<!-- who__is_who_diccionario_caracteristicas2&#45;&gt;who__is_who_estado -->
<g id="edge14" class="edge">
<title>who__is_who_diccionario_caracteristicas2&#45;&gt;who__is_who_estado</title><style>.edge>path:hover{stroke-width:8}</style>
<path fill="none" stroke="black" d="M291.87,-260.71C287.61,-252.67 282.69,-243.38 278.06,-234.64"/>
<polygon fill="#8522e7" stroke="black" points="281.29,-233.27 273.52,-226.08 275.11,-236.55 281.29,-233.27"/>
</g>
<!-- who__is_who_diccionario_caracteristicas2&#45;&gt;who__is_who_randomizer -->
<g id="edge15" class="edge">
<title>who__is_who_diccionario_caracteristicas2&#45;&gt;who__is_who_randomizer</title><style>.edge>path:hover{stroke-width:8}</style>
<path fill="none" stroke="black" d="M505.35,-201.11C510.38,-185.63 506.57,-168.23 500.8,-153.68"/>
<polygon fill="#8522e7" stroke="black" points="504.01,-152.28 496.73,-144.58 497.61,-155.14 504.01,-152.28"/>
<path fill="none" stroke="black" d="M396.18,-276.57C442.09,-267.91 490.75,-247.98 505.35,-203.11"/>
</g>
<!-- who__is_who_diccionario_caracteristicas2&#45;&gt;who__is_who_who__is_who -->
<g id="edge16" class="edge">
<title>who__is_who_diccionario_caracteristicas2&#45;&gt;who__is_who_who__is_who</title><style>.edge>path:hover{stroke-width:8}</style>
<path fill="none" stroke="black" d="M240.66,-265.77C211.66,-253.94 182.63,-234.42 178.35,-203.11"/>
</g>
<!-- who__is_who_estado&#45;&gt;who__is_who_test_test_adivinar -->
<g id="edge17" class="edge">
<title>who__is_who_estado&#45;&gt;who__is_who_test_test_adivinar</title><style>.edge>path:hover{stroke-width:8}</style>
<path fill="none" stroke="black" d="M312.35,-119.85C368.85,-52.07 419.98,-93.9 502.35,-62.23 506.48,-60.63 510.73,-58.89 514.96,-57.08"/>
<polygon fill="#7523c8" stroke="black" points="516.31,-60.31 524.03,-53.06 513.47,-53.91 516.31,-60.31"/>
</g>
<!-- who__is_who_estado&#45;&gt;who__is_who_test_test_aleatorio -->
<g id="edge18" class="edge">
<title>who__is_who_estado&#45;&gt;who__is_who_test_test_aleatorio</title><style>.edge>path:hover{stroke-width:8}</style>
<path fill="none" stroke="black" d="M273.23,-179.61C282.81,-163.08 297.16,-140.08 312.35,-121.85"/>
<path fill="none" stroke="black" d="M312.35,-119.85C326.95,-102.34 313.5,-81.03 295.9,-63.8"/>
<polygon fill="#7523c8" stroke="black" points="298.46,-61.4 288.72,-57.23 293.73,-66.56 298.46,-61.4"/>
</g>
<!-- who__is_who_estado&#45;&gt;who__is_who_who__is_who -->
<g id="edge19" class="edge">
<title>who__is_who_estado&#45;&gt;who__is_who_who__is_who</title><style>.edge>path:hover{stroke-width:8}</style>
<path fill="none" stroke="black" d="M240.4,-181.11C230.55,-171.7 218.63,-160.32 207.88,-150.05"/>
<polygon fill="#7523c8" stroke="black" points="210.32,-147.54 200.67,-143.17 205.48,-152.6 210.32,-147.54"/>
</g>
<!-- who__is_who_style&#45;&gt;who__is_who_who__is_who -->
<g id="edge20" class="edge">
<title>who__is_who_style&#45;&gt;who__is_who_who__is_who</title><style>.edge>path:hover{stroke-width:8}</style>
<path fill="none" stroke="black" d="M116.29,-181.11C126.14,-171.7 138.06,-160.32 148.81,-150.05"/>
<polygon fill="#7f40c0" stroke="black" points="151.21,-152.6 156.03,-143.17 146.38,-147.54 151.21,-152.6"/>
</g>
</g>
</svg>
